# xmcd
# Copyright (C) 1995-1998 Ti Kan
#
# Track frame offsets:
#       150
#       11453
#       30455
#       44368
#       57510
#       74956
#       90154
#       117333
#       134641
#       156650
#       182761
#       196328
#       225753
#
# Disc length: 3555 seconds
#
# Revision: 0
# Processed by: cddbd v1.5.2PL0 Copyright (c) Steve Scherf et al.
# Submitted via: CD-Import v1.0
#
DISCID=b10de10d
DTITLE=Carmen De La Jara - Generación Tango Gardel and Piazzolla
DYEAR=1900
DGENRE=
TTITLE0=Recitado
TTITLE1=Uno
TTITLE2=Madreselva
TTITLE3=Por Una Cabeza
TTITLE4=A Media Luz
TTITLE5=Iaconeando
TTITLE6=Libertango
TTITLE7=Caminito
TTITLE8=Zita
TTITLE9=Contramilonga A La Funerala
TTITLE10=Cumparsita
TTITLE11=Verano Porteño
TTITLE12=Adios Nonino
EXTD=
EXTT0=
EXTT1=
EXTT2=
EXTT3=
EXTT4=
EXTT5=
EXTT6=
EXTT7=
EXTT8=
EXTT9=
EXTT10=
EXTT11=
EXTT12=
PLAYORDER=
